# xmcd CD database file
#
# Track frame offsets:
#	187
#	22270
#	40657
#	55162
#	76932
#	106437
#	133205
#	154320
#	170745
#	190865
#	210740
#	229680
#	242477
#	262480
#	286795
#	301727
#	321975
#
# Disc length: 4438 seconds
#
# Revision: 1
# Processed by: cddbd v1.5.2PL0 Copyright (c) Steve Scherf et al.
# Submitted via: CDex 1.70beta2
#
DISCID=f4115411
DTITLE=Stevie Salas - Anthology Of Stevie Salas Colorcode 1987-1994 [CD1]
DYEAR=1996
DGENRE=Rock
TTITLE0=The Harder They Come
TTITLE1=Tell Your Story Walkin'(Mug Masher Re-Mix)
TTITLE2=God I'm Going Down
TTITLE3=Blind
TTITLE4=Got A Feeling
TTITLE5=Too Many Mountains(Blind Lemon Bollocks Version)
TTITLE6=I Once Was There
TTITLE7=Indian Chief
TTITLE8=Amelia
TTITLE9=Start Again
TTITLE10=The Grooveline
TTITLE11=Chant Of The Ever Circling Skeletal Family
TTITLE12=Shake This Town
TTITLE13=Tell Me
TTITLE14=Good To Your Earhole
TTITLE15=Two Bullets And A Gun
TTITLE16=Trail Of Tears
EXTD=YEAR: 1996
EXTT0=
EXTT1=
EXTT2=
EXTT3=
EXTT4=
EXTT5=
EXTT6=
EXTT7=
EXTT8=
EXTT9=
EXTT10=
EXTT11=
EXTT12=
EXTT13=
EXTT14=
EXTT15=
EXTT16=
PLAYORDER=
